<?xml version="1.0" standalone="no"?>
<!DOCTYPE svg PUBLIC "-//W3C//DTD SVG 20010904//EN"
 "http://www.w3.org/TR/2001/REC-SVG-20010904/DTD/svg10.dtd">
<svg version="1.0" xmlns="http://www.w3.org/2000/svg"
 width="256.000000pt" height="256.000000pt" viewBox="0 0 256.000000 256.000000"
 preserveAspectRatio="xMidYMid meet">
<metadata>
Created by potrace 1.11, written by Peter Selinger 2001-2013
</metadata>
<g transform="translate(0.000000,256.000000) scale(0.100000,-0.100000)"
fill="#000000" stroke="none">
<path d="M25 2315 l-25 -24 0 -855 c0 -764 2 -856 16 -870 14 -14 74 -16 513
-16 l497 0 2 -120 2 -120 -130 0 c-125 0 -130 -1 -145 -24 -18 -28 -12 -50 18
-63 17 -6 939 -11 1014 -4 7 1 17 10 23 22 9 16 8 26 -5 45 -15 23 -19 24
-144 24 l-130 0 2 117 2 118 499 3 c348 1 503 6 513 13 11 9 13 164 13 871 l0
859 -25 24 -24 25 -1231 0 -1231 0 -24 -25z"/>
</g>
</svg>
